<svg xmlns="http://www.w3.org/2000/svg" fill="none" viewBox="0 0 152.9 152.9">
  <path fill="#B59C6F" d="M148.8 27.3l-17.7 0 0 103.8c0,6 4.8,10.9 10.9,10.9 6,0 10.9,-4.9 10.9,-10.9l0 -99.7c0,-2.3 -1.8,-4.1 -4.1,-4.1z"/>
  <g><path d="M136.2 152.1c-9.5,-2.6 -16.1,-11.2 -16.1,-21l0 -127c0,-2.3 -1.8,-4.1 -4.1,-4.1l-111.9 0c-2.3,0 -4.1,1.8 -4.1,4.1l0 129.7c0,10.5 8.6,19.1 19.1,19.1l117 0c0.5,0 0.6,-0.7 0.1,-0.8zm-114.4 -124.8l25.5 0 0 8.5 25.5 0 0 -8.5 25.5 0 0 25.5 -19.5 0 -31.5 31.5 0 2.5 31.9 0 0 -8.5 6.3 0 12.8 12.7 -12.8 12.7 -6.3 0 0 -8.4 -31.9 0 0 8.4 -25.5 0 0 -25.4 19.5 0 31.5 -31.5 0 -2.5 -25.5 0 0 8.5 -25.5 0 0 -25.5z"/></g>
    <style>
        g { fill: #140F12; }
        @media (prefers-color-scheme: dark) {
            g { fill: #DCD6D9; }
        }
    </style>
</svg>
